<svg width="156" height="97" viewBox="0 0 156 97" fill="none" xmlns="http://www.w3.org/2000/svg">
<path d="M121.265 46.2139C118.469 48.7144 118.163 53.1208 119.77 56.4683C121.377 59.8157 124.509 62.2595 127.81 64.0843C131.589 66.1831 135.86 67.6883 140.217 67.582C148.325 67.3961 158.413 58.1436 150.075 51.447C144.415 46.8906 127.674 40.4924 121.265 46.2139Z" fill="#f394d0"/>
<path d="M118.594 9.986C115.453 12.2472 112.878 15.8664 113.498 19.6167C114.019 22.7929 116.825 25.3254 119.991 26.2551C123.158 27.1849 126.631 26.7234 129.748 25.6339C136.333 23.3366 142.712 15.7183 137.525 9.0221C133.287 3.51313 123.241 6.66062 118.594 9.986Z" fill="#f394d0"/>
<path d="M91.4598 36.444C89.5845 39.3771 88.2579 42.8148 88.7553 46.2263C89.4771 51.1295 94.3094 55.0812 99.4228 55.1434C110.443 55.2701 112.294 44.0143 109.777 35.9785C106.792 26.428 96.0158 29.3013 91.4598 36.444Z" fill="#f394d0"/>
<path d="M76.9569 7.17433C75.5086 10.0295 75.2809 13.5019 76.6205 16.4069C81.078 26.0876 94.2669 20.8845 93.3517 11.2546C92.6075 3.53352 80.9487 -0.709547 76.9569 7.17433Z" fill="#f394d0"/>
<path d="M59.2992 34.5369C54.3357 35.8499 50.1958 39.7547 48.7064 44.5196C47.2342 49.2395 48.7027 55.0647 53.0897 57.5481C56.5049 59.4907 61.0157 59.0162 64.4067 57.0369C67.7977 55.0577 70.2034 51.7758 71.8465 48.272C73.5746 44.5805 75.811 39.801 72.3965 36.6782C69.3396 33.9018 63.0737 33.5291 59.2992 34.5369Z" fill="#f394d0"/>
<path d="M92.218 71.3313C88.9245 70.664 85.3354 70.8401 82.4429 72.4849C79.5505 74.1296 77.5519 77.4548 78.1661 80.6643C78.9689 84.8011 83.4702 87.1587 87.5892 88.5068C90.7606 89.528 94.0661 90.3023 97.3892 90.0949C100.712 89.8875 104.087 88.6082 106.191 86.1163C113.614 77.3965 98.7742 72.642 92.218 71.3313Z" fill="#f394d0"/>
<path d="M24.4922 19.8043C22.1317 16.4179 18.1829 13.7579 13.9619 14.0284C11.8594 14.16 9.81084 15.0167 8.21784 16.3446C4.98268 19.0597 3.71317 23.5956 4.43875 27.6918C5.16432 31.7881 7.6495 35.4374 10.791 38.2698C13.3372 40.5809 16.4484 42.4531 19.8992 42.8817C34.8993 44.7556 29.1899 26.5689 24.4922 19.8043Z" fill="#f394d0"/>
<path d="M26.09 58.7003C23.1189 61.9719 23.642 67.6379 27.1565 70.3603C30.6711 73.0826 36.4886 72.3067 39.1229 68.7732C45.2948 60.5546 32.9624 51.1433 26.09 58.7003Z" fill="#f394d0"/>
</svg>
