<svg width="138" height="97" viewBox="0 0 138 97" fill="none" xmlns="http://www.w3.org/2000/svg">
<path d="M0.214959 48.135C-0.49868 56.5298 0.393369 65.5393 5.50778 72.3396C10.6222 79.1592 20.9501 82.7707 28.4235 78.4677C41.7844 70.7836 36.6106 46.6174 50.8635 40.6046C55.6211 49.1531 51.5375 59.5265 48.7028 68.8434C45.868 78.1603 45.4914 90.3971 54.1542 95.2765C61.687 99.5219 71.7573 94.9691 76.6735 87.9958C81.5896 81.0418 82.9376 72.3589 85.1777 64.2138C87.4177 56.0495 91.2238 47.5202 98.8756 43.5053C104.406 51.247 101.552 61.6781 99.9659 70.9949C98.3998 80.2926 100.006 92.2989 109.204 95.3341C114.477 97.063 120.483 94.873 124.448 91.0887C128.412 87.2851 130.652 82.156 132.417 77.0269C138.324 59.757 139.573 41.008 136.024 23.1427C134.756 16.7649 132.734 10.2527 128.174 5.48862C123.615 0.743735 115.904 -1.69594 109.977 1.33925C104.248 4.27839 102.047 10.9443 98.9152 16.4576C95.7831 21.9516 89.2018 27.196 83.3936 24.4297C78.3386 22.0093 77.7241 15.4971 76.4554 10.1759C71.7176 -9.78338 62.3016 8.96564 55.3238 12.1161C46.4231 16.131 41.3483 9.48431 33.9741 6.23781C11.316 -3.713 1.72153 30.3464 0.214959 48.135Z" fill="#f394d0"/>
</svg>
