<svg width="117" height="111" viewBox="0 0 117 111" fill="none" xmlns="http://www.w3.org/2000/svg">
<path d="M42.5769 12.1464C43.3571 7.85582 44.7225 2.84735 48.9251 1.25763C53.3583 -0.417553 58.4121 3.10376 60.0435 7.42848C61.6749 11.7532 60.8769 16.5224 60.2386 21.0693C59.6179 25.6333 59.2278 30.5392 61.533 34.5563C65.2214 40.9835 74.1409 42.5219 81.7127 41.7185C89.2668 40.9151 96.8386 38.4707 104.34 39.7528C111.84 41.0348 119.075 48.2142 116.451 55.103C113.986 61.5473 105.297 62.9661 98.1686 63.0345C91.0401 63.1028 82.5284 63.5473 78.8755 69.4446C76.1979 73.7693 77.4037 79.3761 79.5494 83.9743C81.695 88.5725 84.6918 92.9314 85.5252 97.9057C86.3587 102.88 84.0357 108.914 78.9464 110.128C73.0947 111.529 67.9522 105.991 65.6293 100.624C63.324 95.2562 61.8877 88.9828 56.958 85.6324C50.858 81.4786 42.2754 83.8375 35.9449 87.6665C29.6143 91.4955 23.9044 96.7262 16.6341 98.4185C9.38144 100.145 -0.105509 96.0083 0.000887019 88.7947C0.107283 82.4188 7.12939 78.5043 13.2826 76.1625C19.4358 73.8206 26.6353 70.7266 27.8233 64.4361C29.1001 57.7183 22.6632 52.197 17.0065 48.0945C11.3498 43.9749 5.14334 38.0092 7.0762 31.4281C9.11545 24.4539 19.56 22.8983 25.855 26.847C30.3414 29.6674 33.0545 34.3169 35.6789 38.5904C41.3179 33.3426 41.1937 19.7018 42.5769 12.1464Z" fill="#f394d0"/>
</svg>
